<svg xmlns="http://www.w3.org/2000/svg" xmlns:xlink="http://www.w3.org/1999/xlink" width="192" zoomAndPan="magnify" viewBox="0 0 144 143.999998" height="192" preserveAspectRatio="xMidYMid meet" version="1.0"><defs><clipPath id="id1"><path d="M 3.011719 0 L 141 0 L 141 144 L 3.011719 144 Z M 3.011719 0 " clip-rule="nonzero"/></clipPath><clipPath id="id2"><path d="M 109.578125 48.554688 L 118.707031 53.828125 C 132.527344 61.804688 139.984375 78.28125 136.984375 93.933594 C 133.636719 111.375 118.585938 124.019531 100.878906 124.605469 L 100.15625 124.628906 L 99.789062 125.253906 C 89.328125 143.160156 65.996094 149.347656 48.03125 138.976562 L 3.09375 113.039062 L 36.265625 93.894531 L 26.625 88.332031 C 13.195312 80.574219 5.847656 65.261719 8.0625 49.933594 C 10.722656 31.472656 26.492188 17.84375 45.089844 17.539062 L 45.777344 17.527344 L 46.15625 16.949219 C 57.097656 0.382812 79.621094 -4.929688 96.816406 4.996094 L 140.925781 30.460938 Z M 24.628906 113.039062 L 53.414062 129.65625 C 64.429688 136.015625 78.542969 133.808594 87.113281 124.421875 L 88.425781 122.988281 L 86.601562 122.3125 C 84.574219 121.570312 82.617188 120.652344 80.746094 119.574219 L 47.03125 100.109375 Z M 93.3125 113.15625 L 93.605469 111.773438 C 95.574219 102.441406 92.476562 92.632812 85.476562 86.144531 C 82.253906 83.160156 78.019531 80.902344 74.152344 78.859375 C 69.488281 76.390625 64.761719 74.027344 60.300781 71.203125 C 50.050781 64.722656 42.695312 56.761719 40.5 44.492188 C 39.679688 39.910156 39.699219 35.207031 40.578125 30.632812 L 40.960938 28.617188 L 38.972656 29.121094 C 28.914062 31.65625 21.15625 39.628906 19.011719 49.792969 C 16.605469 61.199219 21.902344 73.175781 32.007812 79.007812 L 86.132812 110.25 C 87.964844 111.308594 89.925781 112.15625 91.957031 112.753906 Z M 52.082031 29.019531 L 51.71875 30.28125 C 48.910156 40.003906 51.945312 50.953125 59.371094 57.832031 C 62.59375 60.816406 66.824219 63.074219 70.691406 65.117188 C 75.355469 67.585938 80.078125 69.949219 84.542969 72.773438 C 94.792969 79.25 102.15625 87.210938 104.34375 99.480469 C 105.0625 103.488281 105.136719 107.605469 104.554688 111.632812 L 104.277344 113.546875 L 106.160156 113.089844 C 129.847656 107.3125 134.453125 75.347656 113.328125 63.152344 L 59.203125 31.910156 C 57.359375 30.84375 55.390625 29.996094 53.34375 29.394531 Z M 57.738281 19.433594 L 59.652344 20.195312 C 62.289062 21.246094 64.828125 22.765625 67.3125 24.140625 C 71.359375 26.375 75.363281 28.679688 79.367188 30.992188 C 85.640625 34.625 91.875 38.339844 98.15625 41.964844 L 98.808594 42.34375 L 119.394531 30.460938 L 91.429688 14.320312 C 81.089844 8.351562 67.964844 9.886719 59.246094 18.027344 Z M 57.738281 19.433594 " clip-rule="evenodd"/></clipPath></defs><g clip-path="url(#id1)"><g clip-path="url(#id2)"><path fill="rgb(100%, 100%, 100%)" d="M 3.09375 0 L 3.09375 144 L 140.925781 144 L 140.925781 0 Z M 3.09375 0 " fill-opacity="1" fill-rule="nonzero"/></g></g></svg>