<svg width="1093" height="148" viewBox="0 0 1093 148" fill="none" xmlns="http://www.w3.org/2000/svg">
<path d="M978.379 43.7306C1000.81 21.4231 1037.19 21.4231 1059.62 43.7306L1079 63L1059.62 82.2694C1037.19 104.577 1000.81 104.577 978.379 82.2694L959 63L978.379 43.7306Z" fill="black"/>
<path fill-rule="evenodd" clip-rule="evenodd" d="M945 63.0304L989 19H1049L1093 63.0304L1019 137L945 63.0304ZM1053 47C1034.3 28.2226 1003.7 28.2227 985 47.0001L969 63.0003L985 79.0004C1003.7 97.7777 1034.3 97.7776 1053 79.0003L1069 63.0003L1053 47Z" fill="#0CE466"/>
<path d="M1019 77C1011.27 77 1005 70.7351 1005 63C1005 55.2649 1011.27 49 1019 49C1026.73 49 1033 55.2649 1033 63C1033 70.7351 1026.73 77 1019 77Z" fill="black"/>
<path fill-rule="evenodd" clip-rule="evenodd" d="M996 63C996 75.7077 1006.3 86 1019 86C1031.7 86 1042 75.7077 1042 63C1042 50.2923 1031.7 40 1019 40C1006.3 40 996 50.2923 996 63ZM1009 63C1009 68.5251 1013.48 73 1019 73C1024.52 73 1029 68.5251 1029 63C1029 57.4749 1024.52 53 1019 53C1013.48 53 1009 57.4749 1009 63Z" fill="white"/>
<path d="M488.795 47.8158H502.261C501.644 30.4779 485.652 17.5166 463.433 17.5166C441.438 17.5166 424.156 30.3096 424.156 49.6113C424.156 65.0976 435.378 74.2996 453.333 79.4616L467.473 83.5015C479.593 86.8681 490.366 91.1325 490.366 102.579C490.366 115.147 478.246 123.452 462.311 123.452C448.62 123.452 436.5 117.392 435.378 104.374H421.014C422.361 123.227 437.623 136.02 462.311 136.02C488.795 136.02 503.832 121.432 503.832 102.803C503.832 81.2572 483.408 74.2996 471.513 71.1574L459.842 68.0153C451.313 65.7709 437.623 61.2821 437.623 48.938C437.623 37.9405 447.722 29.8607 462.984 29.8607C476.899 29.8607 487.448 36.4817 488.795 47.8158Z" fill="white"/>
<path d="M322.878 134H336.794V96.7434L351.158 80.5838L391.108 134H407.941L359.686 70.933L407.941 19.0877H389.761L338.14 76.0951H336.794V19.0877H322.878V134Z" fill="white"/>
<path fill-rule="evenodd" clip-rule="evenodd" d="M131.516 18.5166C160.917 18.5166 182.239 41.1849 182.239 77.5439C182.239 113.903 160.917 136.571 131.516 136.571C102.114 136.571 80.7925 113.903 80.7925 77.5439C80.7925 41.1849 102.114 18.5166 131.516 18.5166ZM131.516 123.554C152.388 123.554 168.772 107.394 168.772 77.5439C168.772 47.6936 152.388 31.534 131.516 31.534C110.643 31.534 94.2588 47.6936 94.2588 77.5439C94.2588 107.394 110.643 123.554 131.516 123.554Z" fill="white"/>
<path fill-rule="evenodd" clip-rule="evenodd" d="M251.871 18.5166C281.272 18.5166 302.594 41.1849 302.594 77.5439C302.594 113.903 281.272 136.571 251.871 136.571C222.469 136.571 201.148 113.903 201.148 77.5439C201.148 41.1849 222.469 18.5166 251.871 18.5166ZM251.871 123.554C272.744 123.554 289.128 107.394 289.128 77.5439C289.128 47.6936 272.744 31.534 251.871 31.534C230.998 31.534 214.614 47.6936 214.614 77.5439C214.614 107.394 230.998 123.554 251.871 123.554Z" fill="white"/>
<path d="M68.21 134H0.878418V19.0874H14.7936V121.656H68.21V134Z" fill="white"/>
<path fill-rule="evenodd" clip-rule="evenodd" d="M541.923 133.727H528.008V18.8145H566.836C593.768 18.8145 605.888 33.7396 605.888 54.0513C605.888 69.3131 599.043 81.2645 584.398 86.2582L610.377 133.727H594.217L569.978 88.7832C569.024 88.8393 568.07 88.8393 567.06 88.8393H541.923V133.727ZM541.923 31.1586V76.2707H566.611C585.015 76.2707 592.197 67.8543 592.197 54.0513C592.197 40.2483 585.015 31.1586 566.387 31.1586H541.923Z" fill="white"/>
<path fill-rule="evenodd" clip-rule="evenodd" d="M645.409 101.183L633.851 133.727H619.262L661.457 18.8145H675.821L718.015 133.727H703.427L691.868 101.183H645.409ZM668.19 36.994L649.786 88.8393H687.492L669.088 36.994H668.19Z" fill="white"/>
<path fill-rule="evenodd" clip-rule="evenodd" d="M736.218 133.727H750.133V88.8393H775.271C776.281 88.8393 777.234 88.8393 778.188 88.7832L802.428 133.727H818.587L792.608 86.2582C807.253 81.2645 814.098 69.3131 814.098 54.0513C814.098 33.7396 801.979 18.8145 775.046 18.8145H736.218V133.727ZM750.133 76.2707V31.1586H774.597C793.226 31.1586 800.408 40.2483 800.408 54.0513C800.408 67.8543 793.226 76.2707 774.822 76.2707H750.133Z" fill="white"/>
<path d="M907.506 133.727H837.257V18.8145H906.608V31.1586H851.172V69.9864H903.017V82.3306H851.172V121.383H907.506V133.727Z" fill="white"/>
</svg>
