<svg width="565" height="297" viewBox="0 0 565 297" fill="none" xmlns="http://www.w3.org/2000/svg">
<path d="M488.831 38.8158H502.298C501.68 21.4779 485.689 8.5166 463.47 8.5166C441.475 8.5166 424.193 21.3096 424.193 40.6113C424.193 56.0976 435.415 65.2996 453.37 70.4616L467.51 74.5015C479.629 77.8681 490.402 82.1325 490.402 93.5788C490.402 106.147 478.283 114.452 462.347 114.452C448.657 114.452 436.537 108.392 435.415 95.3743H421.051C422.397 114.227 437.659 127.02 462.347 127.02C488.831 127.02 503.869 112.432 503.869 93.8033C503.869 72.2572 483.445 65.2996 471.549 62.1574L459.879 59.0153C451.35 56.7709 437.659 52.2821 437.659 39.938C437.659 28.9405 447.759 20.8607 463.021 20.8607C476.936 20.8607 487.485 27.4817 488.831 38.8158Z" fill="white"/>
<path d="M322.915 125H336.83V87.7434L351.194 71.5838L391.144 125H407.977L359.723 61.933L407.977 10.0877H389.798L338.177 67.0951H336.83V10.0877H322.915V125Z" fill="white"/>
<path fill-rule="evenodd" clip-rule="evenodd" d="M131.552 9.5166C160.954 9.5166 182.275 32.1849 182.275 68.5439C182.275 104.903 160.954 127.571 131.552 127.571C102.151 127.571 80.8291 104.903 80.8291 68.5439C80.8291 32.1849 102.151 9.5166 131.552 9.5166ZM131.552 114.554C152.425 114.554 168.809 98.3943 168.809 68.5439C168.809 38.6936 152.425 22.534 131.552 22.534C110.679 22.534 94.2954 38.6936 94.2954 68.5439C94.2954 98.3943 110.679 114.554 131.552 114.554Z" fill="white"/>
<path fill-rule="evenodd" clip-rule="evenodd" d="M251.907 9.5166C281.309 9.5166 302.631 32.1849 302.631 68.5439C302.631 104.903 281.309 127.571 251.907 127.571C222.506 127.571 201.184 104.903 201.184 68.5439C201.184 32.1849 222.506 9.5166 251.907 9.5166ZM251.907 114.554C272.78 114.554 289.164 98.3943 289.164 68.5439C289.164 38.6936 272.78 22.534 251.907 22.534C231.035 22.534 214.651 38.6936 214.651 68.5439C214.651 98.3943 231.035 114.554 251.907 114.554Z" fill="white"/>
<path d="M68.2466 125H0.915039V10.0874H14.8302V112.656H68.2466V125Z" fill="white"/>
<path fill-rule="evenodd" clip-rule="evenodd" d="M14.9596 282.727H1.04443V167.814H39.8723C66.8049 167.814 78.9246 182.74 78.9246 203.051C78.9246 218.313 72.0792 230.264 57.4346 235.258L83.4134 282.727H67.2538L43.0144 237.783C42.0606 237.839 41.1067 237.839 40.0967 237.839H14.9596V282.727ZM14.9596 180.159V225.271H39.6479C58.0518 225.271 65.2339 216.854 65.2339 203.051C65.2339 189.248 58.0518 180.159 39.4234 180.159H14.9596Z" fill="white"/>
<path fill-rule="evenodd" clip-rule="evenodd" d="M118.446 250.183L106.887 282.727H92.2989L134.493 167.814H148.857L191.052 282.727H176.463L164.905 250.183H118.446ZM141.227 185.994L122.823 237.839H160.528L142.124 185.994H141.227Z" fill="white"/>
<path fill-rule="evenodd" clip-rule="evenodd" d="M209.255 282.727H223.17V237.839H248.307C249.317 237.839 250.271 237.839 251.225 237.783L275.464 282.727H291.624L265.645 235.258C280.29 230.264 287.135 218.313 287.135 203.051C287.135 182.74 275.015 167.814 248.083 167.814H209.255V282.727ZM223.17 225.271V180.159H247.634C266.262 180.159 273.444 189.248 273.444 203.051C273.444 216.854 266.262 225.271 247.858 225.271H223.17Z" fill="white"/>
<path d="M380.543 282.727H310.293V167.814H379.645V180.159H324.208V218.986H376.054V231.331H324.208V270.383H380.543V282.727Z" fill="white"/>
<path d="M442.379 192.731C464.813 170.423 501.187 170.423 523.621 192.731L543 212L523.621 231.269C501.187 253.577 464.813 253.577 442.379 231.269L423 212L442.379 192.731Z" fill="black"/>
<path fill-rule="evenodd" clip-rule="evenodd" d="M409 212.03L453 168H513L557 212.03L483 286L409 212.03ZM517 196C498.305 177.223 467.695 177.223 449 196L433 212L449 228C467.695 246.778 498.305 246.778 517 228L533 212L517 196Z" fill="#0CE466"/>
<path d="M483 226C475.271 226 469 219.735 469 212C469 204.265 475.271 198 483 198C490.729 198 497 204.265 497 212C497 219.735 490.729 226 483 226Z" fill="black"/>
<path fill-rule="evenodd" clip-rule="evenodd" d="M460 212C460 224.708 470.303 235 483 235C495.697 235 506 224.708 506 212C506 199.292 495.697 189 483 189C470.303 189 460 199.292 460 212ZM473 212C473 217.525 477.479 222 483 222C488.521 222 493 217.525 493 212C493 206.475 488.521 202 483 202C477.479 202 473 206.475 473 212Z" fill="white"/>
</svg>
